<mxfile host="app.diagrams.net" modified="2022-01-12T06:46:46.125Z" agent="5.0 (Macintosh; Intel Mac OS X 10_15_7) AppleWebKit/537.36 (KHTML, like Gecko) Chrome/97.0.4692.71 Safari/537.36" etag="RFK7YSIy3wIQbYCpXms6" version="16.2.4" type="github">
  <diagram id="9NWZ0o6UgdFZ8PHOrYP3" name="Page-1">
    <mxGraphModel dx="1426" dy="771" grid="1" gridSize="10" guides="1" tooltips="1" connect="1" arrows="1" fold="1" page="1" pageScale="1" pageWidth="827" pageHeight="1169" math="0" shadow="0">
      <root>
        <mxCell id="0" />
        <mxCell id="1" parent="0" />
        <mxCell id="Oo_ZBkANxSpDIiq2Boik-2" value="" style="rounded=1;whiteSpace=wrap;html=1;dashed=1;" vertex="1" parent="1">
          <mxGeometry x="160" y="170" width="440" height="120" as="geometry" />
        </mxCell>
        <mxCell id="Oo_ZBkANxSpDIiq2Boik-7" style="edgeStyle=orthogonalEdgeStyle;rounded=0;orthogonalLoop=1;jettySize=auto;html=1;exitX=1;exitY=0.5;exitDx=0;exitDy=0;entryX=0;entryY=0.5;entryDx=0;entryDy=0;" edge="1" parent="1" source="Oo_ZBkANxSpDIiq2Boik-1" target="Oo_ZBkANxSpDIiq2Boik-3">
          <mxGeometry relative="1" as="geometry" />
        </mxCell>
        <mxCell id="Oo_ZBkANxSpDIiq2Boik-1" value="Metadata" style="rounded=0;whiteSpace=wrap;html=1;" vertex="1" parent="1">
          <mxGeometry x="210" y="190" width="120" height="60" as="geometry" />
        </mxCell>
        <mxCell id="Oo_ZBkANxSpDIiq2Boik-3" value="Metadata" style="rounded=0;whiteSpace=wrap;html=1;" vertex="1" parent="1">
          <mxGeometry x="414" y="190" width="120" height="60" as="geometry" />
        </mxCell>
        <mxCell id="Oo_ZBkANxSpDIiq2Boik-4" value="CN" style="text;html=1;strokeColor=none;fillColor=none;align=center;verticalAlign=middle;whiteSpace=wrap;rounded=0;dashed=1;" vertex="1" parent="1">
          <mxGeometry x="240" y="250" width="60" height="30" as="geometry" />
        </mxCell>
        <mxCell id="Oo_ZBkANxSpDIiq2Boik-5" value="CN standby" style="text;html=1;strokeColor=none;fillColor=none;align=center;verticalAlign=middle;whiteSpace=wrap;rounded=0;dashed=1;" vertex="1" parent="1">
          <mxGeometry x="444" y="250" width="60" height="30" as="geometry" />
        </mxCell>
        <mxCell id="Oo_ZBkANxSpDIiq2Boik-8" value="流复制" style="text;html=1;strokeColor=none;fillColor=none;align=center;verticalAlign=middle;whiteSpace=wrap;rounded=0;dashed=1;" vertex="1" parent="1">
          <mxGeometry x="340" y="190" width="60" height="30" as="geometry" />
        </mxCell>
        <mxCell id="Oo_ZBkANxSpDIiq2Boik-9" value="" style="endArrow=classic;html=1;rounded=0;entryX=0.5;entryY=0;entryDx=0;entryDy=0;" edge="1" parent="1" target="Oo_ZBkANxSpDIiq2Boik-1">
          <mxGeometry width="50" height="50" relative="1" as="geometry">
            <mxPoint x="270" y="110" as="sourcePoint" />
            <mxPoint x="440" y="350" as="targetPoint" />
          </mxGeometry>
        </mxCell>
        <mxCell id="Oo_ZBkANxSpDIiq2Boik-10" value="RW" style="text;html=1;strokeColor=none;fillColor=none;align=center;verticalAlign=middle;whiteSpace=wrap;rounded=0;dashed=1;" vertex="1" parent="1">
          <mxGeometry x="240" y="88" width="60" height="30" as="geometry" />
        </mxCell>
        <mxCell id="Oo_ZBkANxSpDIiq2Boik-11" value="" style="endArrow=classic;html=1;rounded=0;entryX=0.5;entryY=0;entryDx=0;entryDy=0;" edge="1" parent="1" target="Oo_ZBkANxSpDIiq2Boik-3">
          <mxGeometry width="50" height="50" relative="1" as="geometry">
            <mxPoint x="474" y="110" as="sourcePoint" />
            <mxPoint x="474" y="170" as="targetPoint" />
          </mxGeometry>
        </mxCell>
        <mxCell id="Oo_ZBkANxSpDIiq2Boik-12" value="RO" style="text;html=1;strokeColor=none;fillColor=none;align=center;verticalAlign=middle;whiteSpace=wrap;rounded=0;dashed=1;" vertex="1" parent="1">
          <mxGeometry x="444" y="88" width="60" height="30" as="geometry" />
        </mxCell>
      </root>
    </mxGraphModel>
  </diagram>
</mxfile>
